<?xml version="1.0" encoding="utf-8"?>
<!-- Generator: Adobe Illustrator 16.0.0, SVG Export Plug-In . SVG Version: 6.00 Build 0)  -->
<!DOCTYPE svg PUBLIC "-//W3C//DTD SVG 1.1//EN" "http://www.w3.org/Graphics/SVG/1.1/DTD/svg11.dtd">
<svg version="1.1" id="Layer_1" xmlns="http://www.w3.org/2000/svg" xmlns:xlink="http://www.w3.org/1999/xlink" x="0px" y="0px"
	 width="377.16px" height="187.829px" viewBox="0 0 377.16 187.829" enable-background="new 0 0 377.16 187.829"
	 xml:space="preserve">
<g>
	<g>
		<g>
			<path d="M43.62,101.51c0,0,4.241-0.18,6.761,0.322c11,2.189,16.904,26.047,20.538,40.151
				c-27.931,12.287-51.315-2.209-51.315-2.209C27.085,109.092,43.62,101.51,43.62,101.51z"/>
			<path fill="#FDCEAE" d="M88.908,103.534c0,0,0.363-0.664-1.965,1.424c-2.333,2.094-4.729,3.289-4.729,3.289l3.258,3.238
				l2.302-2.447L88.908,103.534z"/>
			<g>
				<path fill="#FAA61A" d="M68.537,75.11c0,0,3.74,20.35-4.674,26.249c-6.625,4.646-9.607-0.646-9.607-0.646
					s-3.143,3.287-11.467,3.322c-8.171,0.031-13.244-4.461-13.244-4.461s-2.668,3.694-7.642,3.082
					c-9.233-1.146-11.439-24.663-4.059-39.62C26.79,44.914,45.957,47.67,45.957,47.67"/>
			</g>
			<path fill="#4A215D" d="M50.111,101.027c8.403,3.791,15.934,9.795,18.289,10.255c2.357,0.459,13.117-6.027,13.117-6.027
				s4.976,6.357,6.204,10.377c0,0-14.542,8.225-21.448,6.229c-6.013-1.738-13.762-11.652-13.762-11.652L50.111,101.027z"/>
			<g>
				<polygon fill="#A62B4D" points="41.824,148.696 39.09,171.309 33.053,171.217 31.896,147.627 				"/>
				<path d="M25.032,178.004c0.43-2.188,7.63-3.613,7.63-3.613c-0.226-1.705-0.112-4.003-0.112-4.003l6.872,0.218
					c0,0-0.649,7.207-1.623,7.467C36.827,178.333,25.032,178.004,25.032,178.004z"/>
			</g>
			<g>
				<polygon fill="#A62B4D" points="44.864,148.704 44.948,171.481 50.956,172.09 54.846,148.795 				"/>
				<path d="M58.134,179.764c-0.172-2.221-7.162-4.477-7.162-4.477c0.423-1.666,0.582-3.963,0.582-3.963l-6.853-0.582
					c0,0-0.193,7.235,0.741,7.604C46.379,178.719,58.134,179.764,58.134,179.764z"/>
			</g>
			<path fill="#FBB995" d="M26.283,90.918c0,0,0.489-0.573-0.64,2.347c-1.132,2.919-1.406,5.583-1.406,5.583l-4.183-1.9l1.479-3.021
				L26.283,90.918z"/>
			<path fill="#4A215D" d="M42.558,101.247c1.824,1.686-1.807,8.393-4.147,11.162c-3.899,4.608-9.192,8.309-11.039,9.137
				C17.58,125.924,15.079,95.9,15.079,95.9l11.066-0.813c0,0,0.063,19.424,2.778,16.256
				C36.588,102.401,42.558,101.247,42.558,101.247z"/>
			<path fill="#4A215D" d="M23.187,145.277c1.346,1.175,9.237,4.361,18.849,5.146c11.869,0.963,22.163-2.012,23.79-3.924
				c1.725-2.029-6.525-44.678-17.924-45.938C34.369,99.07,21.377,143.702,23.187,145.277z"/>
			<path d="M51.675,112.493c-4.479-2.382-5.334-6.438-5.334-6.438c-0.601,0.115-0.998-0.174-0.998-0.174
				c-1.46,3.537-4.85,4.785-4.85,4.785s-0.681-2.15,0.767-4.713c1.857-3.289,4.784-3.295,4.784-3.295s1.586,0.051,2.343,0.61
				c1.945,1.438,4.243,3.909,3.395,9.065L51.675,112.493z"/>
			<g>
				<path fill="#FDCEAE" d="M27.379,91.354c0,0,6.534,8.596,18.741,8.289c14.729-0.37,21.83-7.447,20.464-23.42
					c-1.366-15.971-17.575-17.014-17.575-17.014L24.237,78.021L27.379,91.354z"/>
			</g>
			<g>
				<g>
					
						<ellipse id="SVGID_1_" transform="matrix(0.1777 -0.9841 0.9841 0.1777 -49.7916 110.1885)" fill="#FFFFFF" cx="41.039" cy="84.888" rx="5.946" ry="5.527"/>
				</g>
				<g>
					<g>
						<g>
							<defs>
								
									<ellipse id="SVGID_2_" transform="matrix(0.1777 -0.9841 0.9841 0.1777 -49.7916 110.1885)" cx="41.039" cy="84.888" rx="5.946" ry="5.527"/>
							</defs>
							<clipPath id="SVGID_4_">
								<use xlink:href="#SVGID_2_"  overflow="visible"/>
							</clipPath>
							<g clip-path="url(#SVGID_4_)">
								<circle cx="40.356" cy="85.192" r="4.461"/>
							</g>
						</g>
					</g>
				</g>
			</g>
			<g>
				<path fill="#F9A987" d="M50.829,91.185c0,0,2.985,0.66,3.197-1.293c0.174-1.601-2.64-2.423-2.64-2.423L50.829,91.185z"/>
			</g>
			<g>
				<path fill="#FDCEAE" d="M49.648,96.299c1.247-0.105,2.016-1.176,2.052-1.223c0.078-0.111,0.05-0.265-0.06-0.342
					c-0.106-0.072-0.259-0.052-0.336,0.059c-0.006,0.013-0.785,1.088-1.949,1.028c-1.19-0.059-1.63-1.885-1.633-1.902
					c-0.03-0.129-0.157-0.21-0.29-0.181c-0.133,0.031-0.212,0.161-0.181,0.291c0.02,0.089,0.526,2.199,2.082,2.274
					C49.438,96.313,49.546,96.31,49.648,96.299z"/>
			</g>
			<g>
				<path fill="#F9A987" d="M61.011,80.927c0.095-0.485-0.781-0.979-2.267-0.729c-1.426,0.237-2.042,1.017-1.885,1.271
					c0.174,0.281,1.154-0.062,2.025-0.166C59.015,81.287,60.918,81.409,61.011,80.927z"/>
			</g>
			<g>
				<path fill="#F9A987" d="M34.701,79.755c-0.486-0.51,0.189-1.775,2.159-2.617c1.891-0.809,3.232-0.35,3.238,0.08
					c0.008,0.47-1.432,0.81-2.556,1.353C37.372,78.653,35.189,80.262,34.701,79.755z"/>
			</g>
			<g>
				<path fill="#FDCEAE" d="M26.105,84.373c0,0-3.856-1.476-5.543,0.94c-1.687,2.42-0.134,7.988,7.363,5.82"/>
			</g>
			<g>
				<path fill="#FBB995" d="M21.323,88.876c0.733-1.016,1.863-1.342,2.594-1.447c-0.705-0.587-1.571-1.099-2.361-0.932
					c-0.146,0.038-0.308-0.07-0.337-0.229c-0.031-0.152,0.072-0.303,0.228-0.334c0.998-0.206,2.121,0.321,3.364,1.525
					c0.885,0.854,1.493,1.744,1.518,1.781c0.09,0.132,0.056,0.31-0.077,0.4c-0.033,0.022-0.071,0.036-0.108,0.046
					c-0.111,0.018-0.225-0.027-0.289-0.123c-0.006-0.008-0.568-0.821-1.362-1.61c-0.407,0.009-1.883,0.123-2.706,1.258
					c-0.044,0.062-0.111,0.103-0.182,0.115c-0.076,0.012-0.154-0.004-0.217-0.052C21.258,89.183,21.231,89.003,21.323,88.876z"/>
			</g>
			<g>
				<path fill="#FDCEAE" d="M50.034,98.288l-0.675,4.488c-0.086,0.577-1.656,0.819-3.506,0.542c-1.85-0.276-3.279-0.972-3.19-1.547
					l0.673-4.487L50.034,98.288z"/>
			</g>
			<g>
				<g>
					<path id="SVGID_3_" fill="#F3716D" d="M45.607,93.625c0,0,4.926-1.436,8.042,0.058c0,0-1.334,4.237-5.333,3.722
						C45.206,97,45.607,93.625,45.607,93.625z"/>
				</g>
				<g>
					<g>
						<g>
							<defs>
								<path id="SVGID_5_" d="M45.607,93.625c0,0,4.926-1.436,8.042,0.058c0,0-1.334,4.237-5.333,3.722
									C45.206,97,45.607,93.625,45.607,93.625z"/>
							</defs>
							<clipPath id="SVGID_6_">
								<use xlink:href="#SVGID_5_"  overflow="visible"/>
							</clipPath>
							<path clip-path="url(#SVGID_6_)" fill="#F6978F" d="M50.747,97.2c0,0-1.602,1.243-3.224,0.618
								c-1.769-0.683-1.93-2.491-1.93-2.491S48.884,95.347,50.747,97.2z"/>
						</g>
					</g>
				</g>
			</g>
			<path fill="#FBB995" d="M36.74,90.757c-0.059,0.391-0.243,0.732-0.509,0.985c-0.37,0.354-2.557-2.348-2.208-2.609
				c0.353-0.261,0.808-0.391,1.275-0.317C36.233,88.954,36.879,89.823,36.74,90.757z"/>
			<circle fill="#FBB995" cx="62.641" cy="90.434" r="1.272"/>
			<path fill="#FBB995" d="M49.78,99.979c-2.015,0.979-6.963,0.743-6.963,0.743l0.178-1.195c3.946,0.347,6.873-0.144,6.873-0.144
				L49.78,99.979z"/>
			<path d="M54.473,103.758c-2.397,2.283-7.395,1.373-7.395,1.373s-0.987,0.262-2.868-0.297c-1.633-0.482-4.999-2.026-4.999-2.026
				c0.717-0.779,3.108-1.771,3.581-1.567c3.425,1.477,7.114-0.14,7.114-0.14C52.408,101.775,54.473,103.758,54.473,103.758z"/>
			<g>
				<path d="M87.988,112.818c-0.543,0.116-1.158-0.213-1.502-0.599c-0.358-0.402,7.117-26.131,7.117-26.131s0.646-0.166,0.285,1.214
					C93.523,88.68,87.988,112.818,87.988,112.818z"/>
				<path fill="#FFCB05" d="M95.816,83.436l-0.308-1.765c-0.044-0.245-0.349-0.335-0.517-0.152l-1.214,1.318
					c-0.066,0.074-0.163,0.11-0.262,0.095l-1.775-0.25c-0.245-0.035-0.423,0.226-0.303,0.443l0.88,1.563
					c0.049,0.084,0.052,0.188,0.009,0.278l-0.787,1.609c-0.111,0.226,0.081,0.476,0.329,0.428l1.756-0.357
					c0.096-0.017,0.194,0.01,0.267,0.079l1.288,1.247c0.178,0.173,0.479,0.065,0.506-0.18l0.206-1.782
					c0.013-0.096,0.07-0.184,0.159-0.229l1.581-0.841c0.221-0.116,0.213-0.435-0.013-0.538l-1.632-0.747
					C95.897,83.616,95.833,83.533,95.816,83.436z"/>
			</g>
			<path fill="#FDCEAE" d="M86.692,105.273c0,0,1.945-2.515,2.731-2.144c0.786,0.373-2.132,3.426-2.132,3.426L86.692,105.273z"/>
			<g>
				<path fill="#FDCEAE" d="M89.42,110.104c-0.612,0.279-2.639-0.089-2.701-0.525c-0.057-0.438,1.966-0.92,1.966-0.92
					s-1.819-0.375-1.73-0.945c0.083-0.52,1.973-0.813,1.973-0.813s-1.05-0.332-0.856-0.828c0.177-0.461,1.216-0.52,2.117-0.373
					c0.183,0.029,0.623,0.225,0.642,0.555c0.013,0.269-0.531,0.797-0.531,0.797c-0.04,0.205,0.255,0.354,0.16,0.797
					c-0.087,0.41-0.58,0.847-0.58,0.847c-0.058,0.173,0.148,0.392,0.114,0.584C89.945,109.562,89.726,109.963,89.42,110.104z"/>
			</g>
			<g>
				<g>
					<path d="M55.372,85.586c3.975-1,8.375,0.12,8.375,0.12c-3.674-2.466-6.753-1.264-6.753-1.264"/>
				</g>
				<g>
					<path d="M55.372,85.586c0,0,2.702-3.391,7.108-2.552C62.48,83.034,59.153,83.332,55.372,85.586z"/>
				</g>
			</g>
			<g>
				<g>
					<path opacity="0.3" fill="#FFFFFF" enable-background="new    " d="M37.665,76.895c-4.259,1.853-6.209,6.807-4.356,11.063
						c1.854,4.262,6.806,6.212,11.066,4.358c4.258-1.854,6.209-6.806,4.357-11.067C46.878,76.994,41.923,75.041,37.665,76.895z"/>
					<path d="M32.6,88.27c-0.978-2.25-1.023-4.745-0.125-7.027c0.9-2.282,2.633-4.078,4.881-5.057
						c1.153-0.504,2.373-0.759,3.62-0.764c3.674-0.017,6.996,2.15,8.462,5.521c0.98,2.249,1.023,4.744,0.125,7.026
						c-0.897,2.283-2.633,4.078-4.88,5.057c-1.153,0.501-2.369,0.76-3.617,0.764C37.388,93.808,34.065,91.639,32.6,88.27z
						 M37.973,77.605c-1.87,0.814-3.311,2.306-4.057,4.204c-0.751,1.899-0.711,3.974,0.101,5.844c1.221,2.802,3.983,4.605,7.04,4.59
						c1.036-0.005,2.051-0.218,3.008-0.635c1.871-0.813,3.312-2.307,4.06-4.204c0.747-1.896,0.709-3.974-0.105-5.845
						c-1.217-2.802-3.983-4.605-7.037-4.588C39.944,76.974,38.933,77.188,37.973,77.605z"/>
				</g>
				<g>
					<path d="M18.671,95.358c0.084,0,0.167-0.016,0.25-0.052l14.597-6.337c0.323-0.141,0.421-0.618,0.281-0.939
						c-0.142-0.322-0.575-0.64-0.898-0.503l-14.595,6.337c-0.323,0.14-0.41,0.689-0.267,1.013
						C18.142,95.114,18.425,95.36,18.671,95.358z"/>
				</g>
			</g>
			<g>
				<path fill="#FBB995" d="M19.953,92.766c-0.043,0.673,1.017,2.438,1.447,2.338c0.43-0.1,0.166-2.167,0.166-2.167
					s0.995,1.573,1.494,1.289c0.458-0.262,0.067-2.138,0.067-2.138s0.682,0.869,1.075,0.516c0.37-0.331,0.055-1.326-0.398-2.113
					c-0.094-0.165-0.433-0.507-0.749-0.405c-0.252,0.081-0.554,0.776-0.554,0.776c-0.181,0.112-0.42-0.115-0.801,0.13
					c-0.354,0.227-0.587,0.844-0.587,0.844c-0.142,0.115-0.415-0.003-0.588,0.1C20.278,92.083,19.975,92.432,19.953,92.766z"/>
			</g>
			<path fill="#FAA61A" d="M25.704,84.241c0.597-6.347,3.849-7.214,5.217-9.221c1.231-1.81,0.95-3.452,3.723-2.888
				c1.165,0.24,2.03,0.443,3.136-0.145c0.975-0.526,1.45-1.508,2.557-1.837c2.616-0.783,3.724,3.02,6.656,1.763
				c0.861-0.37,1.228-1.3,2.162-1.56c1.097-0.303,1.905,0.317,2.589,1.048c1.524,1.634,2.688,2.684,4.957,1.688
				c1.556-0.682,3.025-1.078,4.45,0.393c0.592,0.612,0.728,1.448,1.271,2.105c0.708,0.857,1.381,0.926,2.287,1.274
				c1.62,0.62,1.8,1.408,2.197,2.968c0.373,1.471,0.35,14.994,1.446,15.05c0,0,6.859-23.026,0.476-30.042
				c-4.434-4.879-3.622-4.732-3.622-4.732L53.809,63.42L32.62,62.858L21.794,76.673L25.704,84.241z"/>
			<path fill="#5F3277" d="M22.455,56.465C11.837,62.442,6.619,70.982,6.619,70.982c70.403-4.281,74.673-8.974,74.673-8.974
				c-5.66-4.438-17.895-7.826-17.895-7.826s-1.572-4.283-11.104-21.124C42.758,16.218,29.471,5.493,29.471,5.493l2.591,15.91
				c0,0,0.177,6.461-3.116,13.369C25.653,41.68,22.455,56.465,22.455,56.465z"/>
			<path fill="#C9234A" d="M22.455,56.465c29.937-2.208,40.941-2.283,40.941-2.283l-4.813-9.716L25.137,45.75L22.455,56.465z"/>
		</g>
		<polygon fill="#C9234A" points="51.785,167.053 44.923,167.881 44.903,162.792 52.354,163.651 		"/>
		<polygon fill="#C9234A" points="39.453,168.225 32.933,169.01 32.683,163.92 39.871,164.749 		"/>
		<polygon fill="#C9234A" points="53.238,158.37 44.889,158.566 44.865,152.07 53.967,153.988 		"/>
		<polygon fill="#C9234A" points="40.526,159.334 32.479,159.763 32.164,153.346 41.057,154.952 		"/>
	</g>
	<polygon fill="#FDB913" points="57.965,55.856 54.332,42.996 40.263,43.813 41.028,57.438 	"/>
	<polygon fill="#C9234A" points="53.156,44.45 42.28,45.116 43.36,55.048 55.414,53.867 	"/>
	<polyline fill="#FDB913" points="41.371,49.275 48.7,48.751 48.947,50.798 41.711,51.405 	"/>
	
		<ellipse transform="matrix(-0.0526 -0.9986 0.9986 -0.0526 -11.6201 89.4205)" opacity="0.4" enable-background="new    " cx="36.606" cy="50.222" rx="1.104" ry="0.871"/>
	
		<ellipse transform="matrix(-0.0529 -0.9986 0.9986 -0.0529 -17.2477 84.6824)" opacity="0.4" enable-background="new    " cx="31.533" cy="50.52" rx="1.103" ry="0.871"/>
</g>
<g>
	<path fill="#FFFFFF" d="M367.105,168.417c0,5.5-4.5,10-10,10h-240.46c-5.5,0-10-4.5-10-10V37.124c0-5.5,4.5-10,10-10h240.462
		c5.5,0,10,4.5,10,10v131.292H367.105L367.105,168.417z"/>
</g>
<polygon fill="#FFFFFF" points="82.079,131.638 114.53,131.638 114.53,153.088 "/>
</svg>
