<?xml version="1.0" encoding="utf-8"?>
<!-- Generator: Adobe Illustrator 16.0.0, SVG Export Plug-In . SVG Version: 6.00 Build 0)  -->
<!DOCTYPE svg PUBLIC "-//W3C//DTD SVG 1.1//EN" "http://www.w3.org/Graphics/SVG/1.1/DTD/svg11.dtd">
<svg version="1.1" id="Layer_1" xmlns="http://www.w3.org/2000/svg" xmlns:xlink="http://www.w3.org/1999/xlink" x="0px" y="0px"
	 width="119.055px" height="45.354px" viewBox="0 0 119.055 45.354" enable-background="new 0 0 119.055 45.354"
	 xml:space="preserve">
<g>
	<path fill="#007DC2" d="M116.221,37.314c0,3.228-2.641,5.865-5.865,5.865H8.7c-3.228,0-5.865-2.639-5.865-5.865V7.991
		c0-3.226,2.639-5.865,5.865-5.865h101.655c3.226,0,5.865,2.641,5.865,5.865V37.314L116.221,37.314z"/>
	<path fill="#FFFFFF" d="M34.197,22.654c0-1.807,1.463-3.271,3.269-3.271c1.804,0,3.269,1.464,3.269,3.271
		c0,1.806-1.465,3.269-3.269,3.269C35.659,25.921,34.197,24.458,34.197,22.654z M37.464,28.776c3.381,0,6.124-2.74,6.124-6.122
		s-2.743-6.125-6.124-6.125c-3.382,0-6.123,2.743-6.123,6.125S34.083,28.776,37.464,28.776z M59.993,22.654
		c0-1.807,2.555-3.271,5.707-3.271c3.147,0,5.702,1.464,5.702,3.271c0,1.806-2.555,3.269-5.702,3.269
		C62.547,25.921,59.993,24.458,59.993,22.654z M65.762,28.776c4.773,0,8.643-2.74,8.643-6.122s-3.868-6.125-8.643-6.125
		c-4.772,0-8.642,2.743-8.642,6.125S60.99,28.776,65.762,28.776z M54.935,25.804h-5.046l6.199-8.282
		c0.318-0.426,0.144-0.772-0.389-0.772H46.84c-0.775,0-1.404,0.627-1.404,1.403s0.629,1.401,1.404,1.401h4.15l-6.245,8.284
		c-0.32,0.424-0.146,0.771,0.387,0.771h9.803c0.774,0,1.405-0.629,1.405-1.401C56.34,26.431,55.709,25.804,54.935,25.804z
		 M85.049,18.319v4.935l-7.865-6.198c-0.404-0.32-0.735-0.146-0.735,0.387v9.712c0,0.774,0.596,1.404,1.334,1.404
		c0.735,0,1.332-0.63,1.332-1.404v-5.002l7.866,6.245c0.404,0.319,0.732,0.146,0.732-0.386V18.32c0-0.775-0.596-1.405-1.332-1.405
		C85.646,16.913,85.049,17.542,85.049,18.319z"/>
</g>
</svg>
