<?xml version="1.0" encoding="utf-8"?>
<!-- Generator: Adobe Illustrator 16.0.0, SVG Export Plug-In . SVG Version: 6.00 Build 0)  -->
<!DOCTYPE svg PUBLIC "-//W3C//DTD SVG 1.1//EN" "http://www.w3.org/Graphics/SVG/1.1/DTD/svg11.dtd">
<svg version="1.1" id="Layer_1" xmlns="http://www.w3.org/2000/svg" xmlns:xlink="http://www.w3.org/1999/xlink" x="0px" y="0px"
	 width="51.478px" height="31.034px" viewBox="0 0 51.478 31.034" enable-background="new 0 0 51.478 31.034" xml:space="preserve">
<g>
	<path fill="#5C489D" d="M49.445,4.724l-10.721,7.185V7.707C38.724,3.469,35.256,0,31.017,0H7.707C3.469,0,0,3.468,0,7.707v15.621
		c0,4.238,3.468,7.706,7.707,7.706h23.31c4.239,0,7.707-3.468,7.707-7.706v-5.551l10.721,7.186c1.119,0.749,2.033,0.262,2.033-1.084
		V5.809C51.478,4.463,50.564,3.975,49.445,4.724z"/>
	<path fill="#FFFFFF" d="M14.669,8.028c0-0.998,0.643-1.311,1.428-0.695l8.896,6.967c0.786,0.616,0.786,1.622,0,2.238l-8.896,6.968
		c-0.785,0.615-1.428,0.303-1.428-0.695V8.028z"/>
</g>
</svg>
