<?xml version="1.0" encoding="utf-8"?>
<!-- Generator: Adobe Illustrator 16.0.0, SVG Export Plug-In . SVG Version: 6.00 Build 0)  -->
<!DOCTYPE svg PUBLIC "-//W3C//DTD SVG 1.1//EN" "http://www.w3.org/Graphics/SVG/1.1/DTD/svg11.dtd">
<svg version="1.1" id="Layer_1" xmlns="http://www.w3.org/2000/svg" xmlns:xlink="http://www.w3.org/1999/xlink" x="0px" y="0px"
	 width="145.374px" height="53.773px" viewBox="0 0 145.374 53.773" enable-background="new 0 0 145.374 53.773"
	 xml:space="preserve">
<g>
	<path fill="#ffffff" d="M15.769,25.735c-0.473-0.264-1.751-0.86-3.247-0.86c-1.286,0-2.511,0.397-3.649,1.184
		c-0.011-0.238,0.02-0.637,0.186-1.166c0.368-1.181,1.528-3.43,5.151-5.215c1.476-0.728,3.055-1.096,4.693-1.096
		c1.696,0,3.054,0.403,3.73,0.651 M31.159,41.125c0.264,0.473,0.859,1.751,0.859,3.248c0,1.285-0.398,2.51-1.185,3.648
		c0.239,0.011,0.637-0.02,1.166-0.186c1.183-0.369,3.431-1.529,5.216-5.152c0.728-1.475,1.096-3.054,1.096-4.692
		c0-1.697-0.403-3.055-0.651-3.731 M20.009,40.978c0.088,0,0.175,0.034,0.239,0.1c0.105,0.106,0.127,0.271,0.054,0.401l-1.536,2.736
		c1.271-0.283,4.037-1.085,6.062-2.988c0.611-0.576,1.118-1.203,1.443-1.806l-8.638-8.639c-0.464,0.229-1.253,0.643-1.709,1.034
		c-2.612,2.247-3.541,6.011-3.819,7.523l2.698-1.477c0.12-0.066,0.27-0.053,0.375,0.035c0.106,0.088,0.148,0.232,0.105,0.362
		l-1.819,5.616c3.252-1.156,6.351-2.841,6.384-2.858C19.899,40.99,19.954,40.978,20.009,40.978z M47.805,4.814
		c0.553,0.765,1.207,1.54,1.967,2.298c0.766,0.766,1.547,1.425,2.317,1.981c0.681-2.68,1.065-4.894,0.83-5.129
		C52.701,3.748,50.489,4.136,47.805,4.814z M48.321,19.027c-0.885-0.569-1.746-0.941-2.422-1.041l-0.71-0.104l-0.185-0.695
		c-0.317-1.211-0.958-2.32-1.846-3.209c-0.94-0.94-2.118-1.596-3.409-1.896l-0.767-0.178l-0.069-0.784
		c-0.063-0.68-0.45-1.61-1.058-2.557c-1.391,1.067-1.821,1.469-3.032,2.553c-6.482,5.8-17.354,16.099-17.354,16.099l12.199,12.199
		c0,0,10.299-10.871,16.1-17.354C46.852,20.85,47.253,20.418,48.321,19.027z M44.697,12.44c1,1,1.759,2.215,2.215,3.545
		c0.787,0.219,1.646,0.618,2.511,1.166c0.715-1.552,1.448-3.711,2.063-5.835c-1.124-0.737-2.226-1.636-3.253-2.664
		c-1.023-1.023-1.919-2.119-2.654-3.236c-2.126,0.61-4.289,1.337-5.844,2.049c0.593,0.935,1.008,1.857,1.212,2.693
		C42.358,10.605,43.644,11.385,44.697,12.44z M2.355,45.42c-0.127,0.005-0.34,0.807-0.64,1.833c0,0-1.702,0.382-1.716,0.583
		c-0.015,0.204,1.657,0.874,1.657,0.874s-0.45,1.839-0.266,1.882c0.184,0.044,1.404-1.198,1.404-1.198s1.449,0.913,1.587,0.88
		c0.113-0.025-0.385-1.775-0.385-1.775s1.041-0.879,1.028-1.042c-0.016-0.163-1.827-0.208-1.827-0.208S2.523,45.416,2.355,45.42z
		 M0.536,32.714c-0.148,0.175,1.298,1.735,1.298,1.735s-1.532,1.072-1.453,1.195s2.027-0.03,2.027-0.03s0.121,2.324,0.238,2.345
		c0.117,0.022,1.485-1.922,1.485-1.922s1.674,1.078,1.701,0.974s-0.694-1.753-0.694-1.753s1.284-1.008,1.209-1.183
		c-0.076-0.173-2.055-0.526-2.055-0.526S4.042,31.49,3.84,31.436c-0.19-0.052-1.094,1.931-1.094,1.931
		C1.975,33.103,0.621,32.617,0.536,32.714z M23.638,50.887c0,0,1.1-1.624,0.971-1.747c-0.136-0.129-1.837,0.643-1.837,0.643
		s-1.239-1.743-1.408-1.72c-0.169,0.021-0.302,1.869-0.302,1.869s-1.607,0.218-1.674,0.289c-0.068,0.07,1.544,0.852,1.544,0.852
		s-0.853,1.963-0.782,2.043c0.071,0.08,1.916-0.916,1.916-0.916s0.796,1.571,0.927,1.574c0.133,0.004,0.239-1.678,0.239-1.678
		s1.877,0.381,1.941,0.186C25.21,52.172,24.201,51.356,23.638,50.887z M9.892,43.793c0,0-0.635-0.896-0.744-0.921
		c-0.107-0.026-0.251,1.271-0.251,1.271s-0.76,0.344-0.833,0.434c-0.074,0.089,0.895,0.439,0.895,0.439s0.057,1.148,0.143,1.195
		c0.088,0.047,0.929-0.846,0.929-0.846s1.088,0.414,1.261,0.38c0.173-0.032-0.742-1.337-0.742-1.337s0.601-0.726,0.565-0.848
		C11.077,43.438,9.892,43.793,9.892,43.793z M2.07,13.96c-0.105,0.023-0.227,0.782-0.309,1.708c0,0-1.565,0.624-1.544,0.797
		c0.023,0.175,1.624,0.636,1.624,0.636s0.112,1.696,0.275,1.702c0.166,0.005,0.999-1.529,0.999-1.529s1.393,0.536,1.503,0.484
		c0.092-0.042-0.629-1.45-0.629-1.45s0.855-0.889,0.815-1.025c-0.04-0.137-1.648,0.108-1.648,0.108S2.213,13.928,2.07,13.96z
		 M53.813,23.151c0,0-1.506,0.283-1.498,0.416c0.008,0.134,1.043,0.657,1.043,0.657s-0.2,1.476-0.107,1.484
		c0.115,0.01,1.185-0.899,1.185-0.899s1.22,1.104,1.365,1.048c0.143-0.056-0.284-1.599-0.284-1.599s1.277-0.906,1.242-1.068
		c-0.034-0.162-1.617-0.228-1.617-0.228c-0.362-0.798-0.706-1.435-0.81-1.422C54.194,21.555,53.813,23.151,53.813,23.151z
		 M49.231,42.781c-0.124,0.068-0.009,1.07,0.219,2.27c0,0-1.755,1.349-1.665,1.561c0.092,0.213,2.278,0.222,2.278,0.222
		s0.749,2.103,0.958,2.052c0.209-0.052,0.715-2.289,0.715-2.289s1.951,0.18,2.073,0.076c0.101-0.086-1.314-1.609-1.314-1.609
		s0.763-1.428,0.664-1.586s-2.043,0.727-2.043,0.727S49.399,42.689,49.231,42.781z M43.571,30.098
		c-0.204,0.188,0.426,2.223,0.426,2.223s-1.818,1.32-1.583,1.557c0.236,0.234,2.124,0.484,2.124,0.484s-0.091,2.123,0.111,2.197
		c0.227,0.084,2.082-1.32,2.082-1.32s2.59,1.564,2.751,1.379c0.118-0.137-0.896-2.712-0.896-2.712s1.933-1.133,1.78-1.403
		c-0.152-0.27-2.349-0.713-2.349-0.713s-0.146-2.311-0.367-2.327c-0.22-0.017-1.783,1.771-1.783,1.771S43.773,29.912,43.571,30.098z
		 M14.268,14.602c0.41-0.019,2.446-1.179,2.446-1.179s2.231,1.843,2.317,1.706c0.088-0.138-0.425-2.488-0.425-2.488
		s2.081-0.496,1.989-0.649c-0.096-0.152-2.242-0.988-2.242-0.988s-0.601-2.655-0.791-2.667c-0.19-0.01-0.5,0.696-0.703,1.085
		C16.654,9.81,16.374,10.6,16.374,10.6s-0.896-0.03-1.396-0.025c-0.503,0.004-1.107,0.107-1.183,0.192
		c-0.077,0.089,0.623,0.785,1.271,1.389C15.067,12.156,13.856,14.621,14.268,14.602z M25.929,1.335c0,0-0.854-1.427-1.12-1.331
		c-0.268,0.097-0.326,1.647-0.326,1.647s-1.496,0.635-1.591,0.902C22.798,2.82,24.34,3.086,24.34,3.086s-0.088,1.264,0.042,1.42
		c0.13,0.156,1.217-0.979,1.217-0.979s1.239,0.46,1.467,0.412c0.23-0.048-0.433-1.377-0.433-1.377s1.261-1.045,1.148-1.305
		C27.724,1.121,25.929,1.335,25.929,1.335z M39.355,49.27c0,0-0.212-1.184-0.306-1.26c-0.095-0.074-0.844,1.141-0.844,1.141
		s-0.911-0.016-1.027,0.039c-0.115,0.054,0.679,0.854,0.679,0.854s-0.479,1.163-0.416,1.251c0.064,0.086,1.314-0.404,1.314-0.404
		s0.884,0.918,1.068,0.967c0.186,0.05-0.112-1.291-0.112-1.291s1.429-0.516,1.451-0.652C41.185,49.777,39.355,49.27,39.355,49.27z
		 M39.325,1.703c0,0-0.177-0.993-0.257-1.058c-0.078-0.063-0.707,0.959-0.707,0.959s-0.769-0.013-0.864,0.032
		c-0.098,0.045,0.569,0.718,0.569,0.718s-0.402,0.978-0.351,1.051c0.054,0.074,1.106-0.338,1.106-0.338s0.742,0.771,0.896,0.813
		c0.156,0.041-0.095-1.085-0.095-1.085s1.202-0.434,1.22-0.549C40.862,2.13,39.325,1.703,39.325,1.703z M7.403,1.943
		C7.41,2.064,8.337,2.66,8.337,2.66s-0.43,1.271-0.265,1.244C8.237,3.878,9.09,3.155,9.09,3.155s1.047,0.539,1.11,0.47
		c0.063-0.07-0.251-1.128-0.251-1.128s0.763-0.626,0.666-0.683c-0.095-0.058-0.893-0.125-0.893-0.125S9.179,0.561,9.09,0.619
		C9.001,0.676,8.643,1.64,8.643,1.64S7.396,1.823,7.403,1.943z"/>
	<g>
		<path fill="#FFFFFF" d="M134.409,20.304c0.02-0.204,0.116-0.28,0.311-0.269c0.505,0.03,2.082,0.049,2.226,0.176
			c0.131,0.116,0.136,2.087,0.2,2.79c0.058,1.917,0.138,3.486,0.268,4.746c0.265,2.579,1.04,3.946,2.013,4.297
			c0.599,0.215,0.848,0.043,1.269,0.01c0.815-0.066,1.703-0.852,2.002-3.967c0.148-1.549,0.153-3.67-0.068-6.566
			c-0.018-0.223,0.077-0.347,0.301-0.373c0.603-0.065,1.205-0.127,1.807-0.195c0.288-0.032,0.426,0.092,0.458,0.377
			c0.052,0.506,0.307,3.011,0.181,5.689c-0.164,3.51-1.098,7.321-5.155,7.321c-1.017,0-2.119-0.104-2.835-0.467
			c-1.611-0.822-2.344-3.857-2.619-6.854C134.463,23.737,134.391,20.509,134.409,20.304z"/>
		<path fill="#FFFFFF" d="M131.47,19.405c0.216,0.01,0.325,0.108,0.289,0.353c0.007,0.782,0.004,1.357-0.074,2.038
			c-0.03,0.269-0.154,0.335-0.405,0.337c-7.333-0.504-7.929,5.914-7.342,8.062c0.297,1.092,1.046,1.901,2.508,1.984
			c0.557,0.008,0.941-0.369,1.044-0.922c0.074-0.406,0.108-0.819,0.147-1.231c0.023-0.25-0.091-0.378-0.356-0.395
			c-0.347-0.021-0.999-0.016-1.337-0.08c-0.102-0.02-0.34-0.021-0.261-0.335c0.167-0.644,0.193-0.909,0.332-1.499
			c0.063-0.267,0.17-0.38,0.364-0.398c0.729-0.08,2.464,0.026,3.082,0.088c0.132,0.016,0.345,0.027,0.354,0.311
			c0.016,0.483-0.174,3.605-0.375,4.668c-0.184,0.962-1.104,1.666-2.06,1.787c-4.085,0.563-6.729-1.721-6.351-5.737
			c0.13-1.373,0.412-8.3,8.594-9.012C130.418,19.37,131.173,19.395,131.47,19.405z"/>
		<path fill="#FFFFFF" d="M90.52,34.328c-0.666-0.038-2.144,0.012-2.144,0.012s-0.258-0.059-0.31-0.216
			c-0.321-0.95-1.181-3.486-1.284-3.81c-0.089-0.279-0.255-0.432-0.56-0.449c-0.775-0.035-2.808-0.146-3.621-0.159
			c-0.194-0.005-0.313-0.06-0.494,0.25c-0.411,0.714-1.563,3.313-1.852,3.935c-0.169,0.375-0.241,0.299-0.599,0.273
			c-0.369,0.006-1.669-0.119-1.669-0.119s-0.36,0.007-0.193-0.557c0.191-0.6,4.824-11.739,5.593-13.393
			c0.058-0.122,0.255-0.24,0.391-0.245c0.671-0.02,1.342,0.007,2.01,0.002c0.284-0.002,0.417,0.14,0.505,0.385
			c0.86,2.434,3.693,11.478,4.315,13.529C90.649,33.908,90.801,34.344,90.52,34.328z M85.563,27.545
			c0.195,0.003,0.6,0.073,0.425-0.267c-0.355-0.957-0.88-2.259-1.253-3.208c-0.097-0.238-0.322-0.305-0.448-0.009
			c-0.38,0.907-0.899,2.243-1.25,3.163c-0.023,0.057-0.11,0.225,0.163,0.252C83.971,27.557,84.79,27.544,85.563,27.545z"/>
		<path fill="#FFFFFF" d="M77.35,19.267c-0.252,0.025-3.146,3.911-3.565,3.903c-0.397-0.004-2.934-2.876-3.275-3.193
			c-0.256-0.238-0.399-0.366-0.577-0.362c-0.177,0.008-0.296,0.142-0.536,0.412c-0.052,0.057-0.112,0.109-0.172,0.161
			c-0.064,0.056-0.129,0.113-0.186,0.175c-0.15,0.164-0.297,0.333-0.433,0.493c0,0-0.291,0.208,0.093,0.728
			c0.17,0.233,2.36,2.665,3.15,3.44c0.365,0.359,0.5,0.738,0.467,1.311c-0.135,2.46-0.238,4.912-0.342,7.416
			c-0.005,0.127-0.106,0.496,0.35,0.481c0.287-0.01,1.349,0.126,1.891,0.103c0.179-0.006,0.315,0.111,0.357-0.461
			c0.102-1.506,0.194-6.973,0.224-7.614c0.013-0.295,0.117-0.597,0.265-0.772c0.558-0.661,4.167-4.691,4.167-4.904
			C79.229,20.29,77.936,19.205,77.35,19.267z"/>
		<path fill="#FFFFFF" d="M108.332,28.907c-0.312-7.882,4.657-8.677,5.422-8.625c5.288,0.368,5.28,5.831,5.29,6.541
			c0.068,5.771-3.467,7.517-4.956,7.412C108.85,34.617,108.402,29.727,108.332,28.907z M116.701,25.904
			c0.022-0.773-0.65-3.178-2.822-3.127c-3.384,0.172-3.156,5.358-3.004,6.701c0.309,2.695,2.478,2.84,3.04,2.863
			C114.852,32.387,116.884,30.103,116.701,25.904z"/>
		<path fill="#FFFFFF" d="M105.878,34.007c0.057-1.398-0.095-12.545-0.104-12.956c-0.012-0.502-0.118-0.508-0.244-0.525
			c-0.668-0.086-1.745-0.07-1.998-0.085c-0.263-0.015-0.345,0.2-0.472,0.345c-1.076,1.214-2.425,2.753-2.997,3.459
			c-0.131,0.162-0.267,0.216-0.412-0.023c-0.62-1.007-1.379-2.486-2.017-3.563c-0.176-0.295-0.258-0.366-0.46-0.38
			c-0.283-0.016-1.021-0.088-1.457-0.038c-0.354,0.041-0.348,0.274-0.451,0.555c-0.683,1.848-2.753,11.311-3.08,12.73
			c-0.102,0.439,0.044,0.378,0.305,0.438c0.579,0.139,1.001,0.182,1.751,0.315c0.316,0.055,0.461,0.066,0.517-0.204
			c0.282-1.304,1.508-8.18,1.802-9.431c0.056-0.24,0.345-0.24,0.404-0.129c0.475,0.919,1.694,2.774,2.286,3.739
			c0.029,0.049,0.273,0.174,0.448-0.008c0.842-0.887,2.115-2.421,3.145-3.5c0.082-0.088,0.379-0.143,0.409,0.188
			c0.096,1.061-0.051,7.983,0.018,9.074c0.016,0.303,0.236,0.252,0.387,0.266c0.691,0.059,1.223,0.04,1.891-0.01
			C105.679,34.257,105.868,34.312,105.878,34.007z"/>
	</g>
</g>
</svg>
