<?xml version="1.0" encoding="utf-8"?>
<!-- Generator: Adobe Illustrator 16.0.0, SVG Export Plug-In . SVG Version: 6.00 Build 0)  -->
<!DOCTYPE svg PUBLIC "-//W3C//DTD SVG 1.1//EN" "http://www.w3.org/Graphics/SVG/1.1/DTD/svg11.dtd">
<svg version="1.1" id="Layer_1" xmlns="http://www.w3.org/2000/svg" xmlns:xlink="http://www.w3.org/1999/xlink" x="0px" y="0px"
	 width="134.723px" height="51.671px" viewBox="0 0 134.723 51.671" enable-background="new 0 0 134.723 51.671"
	 xml:space="preserve">
<g>
	
		<linearGradient id="SVGID_1_" gradientUnits="userSpaceOnUse" x1="851.1477" y1="558.3835" x2="980.1243" y2="558.3835" gradientTransform="matrix(1 0 0 1 -680.4102 -532.1992)">
		<stop  offset="0" style="stop-color:#ED3293"/>
		<stop  offset="1" style="stop-color:#4E2367"/>
	</linearGradient>
	<path fill="url(#SVGID_1_)" d="M299.714,42.863c0,3.669-3.002,6.671-6.67,6.671H177.409c-3.669,0-6.672-3.003-6.672-6.671V9.506
		c0-3.668,3.003-6.671,6.672-6.671h115.633c3.67,0,6.672,3.002,6.672,6.671V42.863L299.714,42.863z"/>
	<g>
		<path fill="#FFFFFF" d="M233.153,37.519h-2.993l-4.619-15.891l-4.584,15.891h-2.994l-5.922-22.674h3.631l3.948,16.213
			l4.553-16.213h2.772l4.551,16.213l3.95-16.213h3.632L233.153,37.519z"/>
		<path fill="#FFFFFF" d="M251.57,37.519h-9.174V14.845h8.82c4.203,0,6.85,2.388,6.85,6.212c0,2.451-1.531,4.203-3.059,4.807
			c1.752,0.702,3.406,2.39,3.406,5.254C258.413,35.29,255.579,37.519,251.57,37.519z M250.931,17.935h-5.096v6.497h5.096
			c2.197,0,3.695-1.147,3.695-3.248C254.624,19.082,253.128,17.935,250.931,17.935z M251.249,27.522h-5.414v6.912h5.414
			c2.387,0,3.725-1.465,3.725-3.472C254.974,28.954,253.636,27.522,251.249,27.522z"/>
	</g>
</g>
<g>
	<path fill="#FFD300" d="M131.811,42.862c0,3.669-3.002,6.671-6.672,6.671H9.506c-3.67,0-6.672-3.002-6.672-6.671V9.507
		c0-3.67,3.002-6.672,6.672-6.672h115.633c3.67,0,6.672,3.002,6.672,6.672V42.862z"/>
	<g>
		<g>
			<path fill="#EC1C24" d="M17.984,18.096c-0.877,0.785-1.448,2.078-1.448,3.779c0,2.313,1.172,3.449,2.505,4.168
				c0.102,0.053,0.204,0.105,0.3,0.149l-4.105,8.021h2.015l3.488-7.517c0.584,0.137,0.912,0.1,0.912,0.1v7.469h1.695V17.385
				c-0.728-0.229-1.603-0.302-2.417-0.302C19.742,17.083,18.733,17.438,17.984,18.096z M21.65,25.279
				c-0.222,0.024-0.373,0.024-0.593,0.024c-1.623,0-2.809-1.29-2.809-3.374c0-1.855,0.792-3.276,2.525-3.276
				c0.396,0,0.654,0.052,0.876,0.101V25.279z"/>
			<polygon fill="#231F20" points="30.68,27.178 27.539,27.178 27.539,21.978 25.85,21.978 25.85,34.265 27.539,34.265 
				27.539,28.86 30.68,28.86 30.68,34.265 32.368,34.265 32.368,21.978 30.68,21.978 			"/>
			<path fill="#231F20" d="M41.286,21.978h-5.403v3.604c0,1.649-0.152,3.146-0.484,4.548c-0.217,0.906-0.549,1.797-0.984,2.609
				l-0.707,0.028l0.09,4.768h1.298l0.106-3.271h5.494l0.105,3.271h1.275l0.109-4.768l-0.899-0.028V21.978z M39.617,32.714H36.08
				c0.376-0.761,0.658-1.598,0.859-2.486c0.351-1.498,0.438-3.173,0.438-4.873v-1.803h2.24V32.714z"/>
			<path fill="#231F20" d="M46.909,21.779c-2.132,0-3.577,2.485-3.577,6.471c0,3.752,1.316,6.169,3.861,6.169
				c0.837,0,1.738-0.205,2.33-0.587l-0.264-1.444c-0.417,0.277-1.034,0.484-1.759,0.484c-1.229,0-2.505-0.815-2.523-4.571h4.94
				c0.022-0.308,0.022-0.634,0.022-1.091C49.941,24.414,49.082,21.779,46.909,21.779z M48.315,26.852h-3.318
				c0.066-1.679,0.641-3.551,1.738-3.551C47.547,23.302,48.36,24.387,48.315,26.852z"/>
			<polygon fill="#231F20" points="58.329,21.978 56.446,21.978 53.651,27.311 53.411,27.311 53.411,21.978 51.76,21.978 
				51.76,34.265 53.411,34.265 53.411,28.754 57.039,34.216 58.946,34.216 54.639,28.031 			"/>
			<path fill="#231F20" d="M63.492,32.789c-1.561,0-2.505-1.725-2.505-4.59c0-2.411,0.767-4.744,2.458-4.744
				c0.55,0,0.993,0.2,1.211,0.325l0.328-1.598c-0.307-0.204-0.92-0.382-1.492-0.382c-2.66,0-4.195,2.87-4.195,6.398
				c0,4.06,1.559,6.22,3.887,6.22c0.75,0,1.387-0.205,1.758-0.462L64.72,32.46C64.323,32.665,63.955,32.789,63.492,32.789z"/>
		</g>
		<g>
			<path fill="#231F20" d="M80.351,17.155h-0.247c0,0-3.438,10.377-3.718,11.956l-3.655-11.956h-0.193l0,0h-0.772v16.354
				l-0.002,0.757h0.002h0.772V19.13c0.681,2.809,3.501,11.682,3.501,11.682h0.545c0,0,3.149-9.559,3.768-11.965v13.7
				c-0.004,1.052-0.011,1.719-0.011,1.719h0.011h0.763h0.012v-17.11H80.351L80.351,17.155z"/>
			<path fill="#231F20" d="M89.125,26.6c0-2.164-0.441-4.8-2.733-4.8c-0.706,0-1.595,0.305-2.317,1.041l0.247,0.889
				c0.574-0.634,1.297-0.916,1.989-0.916c1.878-0.022,2.025,2.386,2.025,3.582v0.332c-3.228-0.054-4.823,1.65-4.823,4.465
				c0,1.623,0.725,3.348,2.323,3.348c1.265,0,2.14-1.089,2.535-2.026h0.031l0.116,1.751h0.723c-0.101-0.939-0.116-1.931-0.116-2.897
				V26.6z M88.336,30.352c0,0.207-0.014,0.487-0.085,0.736c-0.261,1.196-1.021,2.439-2.332,2.439c-0.828,0-1.581-0.788-1.581-2.54
				c0-2.918,2.27-3.321,3.998-3.25V30.352z"/>
			<path fill="#231F20" d="M95.364,21.801c-1.38,0-2.351,0.991-2.929,2.587h-0.032l-0.048-2.305h-0.762
				c0.053,1.165,0.067,2.354,0.067,3.878v13.327h0.792v-7.003h0.029c0.547,1.467,1.553,2.256,2.685,2.256
				c1.909,0,3.591-2.231,3.591-6.571C98.757,24.387,97.39,21.801,95.364,21.801z M95.117,33.528c-1.215,0-2.271-1.219-2.603-3.1
				c-0.045-0.298-0.063-0.63-0.063-0.963v-2.385c0-0.333,0.063-0.712,0.113-1.037c0.349-2.008,1.469-3.229,2.617-3.229
				c1.798,0,2.783,2.465,2.783,5.208C97.966,31.266,96.931,33.528,95.117,33.528z"/>
			<polygon fill="#231F20" points="106.559,22.083 105.524,22.083 101.931,27.64 101.553,27.64 101.553,22.083 100.765,22.083 
				100.765,34.265 101.553,34.265 101.571,28.769 101.815,28.678 105.26,34.216 106.591,34.216 102.526,28.074 			"/>
			<path fill="#231F20" d="M110.938,21.801c-2.041,0-3.554,2.538-3.554,6.602c0,3.574,1.415,6.113,3.686,6.113
				c1.385,0,2.191-0.531,2.489-0.787l-0.2-0.939c-0.444,0.332-1.035,0.685-2.188,0.685c-1.63,0-3.015-1.546-3.015-5.426h5.829
				c0.033-0.23,0.033-0.407,0.033-0.736C114.018,25.56,113.525,21.801,110.938,21.801z M113.192,27.081h-4.985
				c0.15-1.881,0.887-4.267,2.635-4.267C112.75,22.814,113.208,25.381,113.192,27.081z"/>
			<polygon fill="#231F20" points="114.859,22.083 114.859,23.096 117.428,23.096 117.428,34.265 118.214,34.265 118.214,23.096 
				120.783,23.096 120.783,22.083 			"/>
		</g>
	</g>
</g>
<g>
	<path fill="#007DC1" d="M131.811,182.621c0,3.67-3.002,6.672-6.671,6.672H9.506c-3.67,0-6.672-3.002-6.672-6.672v-33.356
		c0-3.668,3.002-6.67,6.672-6.67H125.14c3.669,0,6.671,3.002,6.671,6.67V182.621z"/>
	<path fill="#FFFFFF" d="M38.509,165.942c0-2.053,1.662-3.717,3.717-3.717c2.053,0,3.717,1.664,3.717,3.717
		c0,2.056-1.664,3.72-3.717,3.72C40.171,169.662,38.509,167.998,38.509,165.942z M42.226,172.908c3.846,0,6.966-3.118,6.966-6.966
		c0-3.845-3.12-6.964-6.966-6.964c-3.848,0-6.965,3.119-6.965,6.964C35.261,169.79,38.378,172.908,42.226,172.908z M67.852,165.942
		c0-2.053,2.906-3.717,6.491-3.717c3.582,0,6.485,1.664,6.485,3.717c0,2.056-2.903,3.72-6.485,3.72
		C70.758,169.662,67.852,167.998,67.852,165.942z M74.415,172.908c5.43,0,9.83-3.118,9.83-6.966c0-3.845-4.4-6.964-9.83-6.964
		c-5.431,0-9.832,3.119-9.832,6.964C64.583,169.79,68.985,172.908,74.415,172.908z M62.099,169.528h-5.74l7.051-9.422
		c0.363-0.482,0.164-0.879-0.44-0.879H52.89c-0.881,0-1.596,0.714-1.596,1.598s0.715,1.594,1.596,1.594h4.723l-7.104,9.423
		c-0.364,0.481-0.165,0.878,0.44,0.878h11.15c0.881,0,1.598-0.714,1.598-1.594C63.697,170.242,62.98,169.528,62.099,169.528z
		 M96.353,161.012v5.612l-8.946-7.049c-0.459-0.365-0.836-0.167-0.836,0.439v11.047c0,0.881,0.677,1.598,1.516,1.598
		c0.837,0,1.516-0.717,1.516-1.598v-5.69l8.949,7.104c0.461,0.364,0.834,0.164,0.834-0.438v-11.025c0-0.882-0.678-1.598-1.516-1.598
		C97.032,159.415,96.353,160.131,96.353,161.012z"/>
</g>
</svg>
