<?xml version="1.0" encoding="utf-8"?>
<!-- Generator: Adobe Illustrator 16.0.0, SVG Export Plug-In . SVG Version: 6.00 Build 0)  -->
<!DOCTYPE svg PUBLIC "-//W3C//DTD SVG 1.1//EN" "http://www.w3.org/Graphics/SVG/1.1/DTD/svg11.dtd">
<svg version="1.1" id="Layer_1" xmlns="http://www.w3.org/2000/svg" xmlns:xlink="http://www.w3.org/1999/xlink" x="0px" y="0px"
	 width="595.28px" height="841.89px" viewBox="0 0 595.28 841.89" enable-background="new 0 0 595.28 841.89" xml:space="preserve">
<g>
	<path fill="#5C489D" d="M106.721,54.947L96,62.132v-4.202c0-4.238-3.468-7.707-7.707-7.707h-23.31
		c-4.238,0-7.707,3.468-7.707,7.707v15.621c0,4.238,3.468,7.706,7.707,7.706h23.31c4.239,0,7.707-3.468,7.707-7.706V68l10.721,7.186
		c1.119,0.749,2.033,0.262,2.033-1.084v-18.07C108.754,54.686,107.84,54.198,106.721,54.947z"/>
	<path fill="#FFFFFF" d="M71.945,58.251c0-0.998,0.643-1.311,1.428-0.695l8.896,6.967c0.786,0.616,0.786,1.622,0,2.238l-8.896,6.968
		c-0.785,0.615-1.428,0.303-1.428-0.695V58.251z"/>
</g>
</svg>
